# xmcd
#
# Track frame offsets: 
#        150
#        14439
#        30632
#        50947
#        65322
#        85504
#        107943
#        123321
#        139992
#        157753
#
# Disc length: 2728 seconds
#
# Revision: 0
# Processed by: cddbd v1.5.2PL0 Copyright (c) Steve Scherf et al.
# Submitted via: ExactAudioCopy v1.0b4
#
DISCID=800aa60a
DTITLE=Sean Chambers Band - Live from the Long Island Blues Warehouse
DYEAR=2011
DGENRE=Blues
TTITLE0=Dixie 45
TTITLE1=Love Can't Find A Way
TTITLE2=Full Moon On Main Street
TTITLE3=Strong Temptation
TTITLE4=Dust My Broom
TTITLE5=Crazy For Loving You
TTITLE6=Danger Zone
TTITLE7=Too Much Blues
TTITLE8=Hip Shake Boogie
TTITLE9=In The WInter Time
EXTD=
EXTT0=
EXTT1=
EXTT2=
EXTT3=
EXTT4=
EXTT5=
EXTT6=
EXTT7=
EXTT8=
EXTT9=
PLAYORDER=
